<mxfile host="app.diagrams.net" agent="Mozilla/5.0 (Windows NT 10.0; Win64; x64) AppleWebKit/537.36 (KHTML, like Gecko) Chrome/117.0.0.0 Safari/537.36" version="28.0.9">
  <diagram id="lR4dvnIPTEWd91jWwzxk" name="PÃ¡gina-1">
    <mxGraphModel dx="908" dy="673" grid="1" gridSize="10" guides="1" tooltips="1" connect="1" arrows="1" fold="1" page="1" pageScale="1" pageWidth="827" pageHeight="1169" background="#ffffff" math="1" shadow="0">
      <root>
        <mxCell id="0" />
        <mxCell id="1" parent="0" />
        <mxCell id="7RYQ9nikGVs3Xfe4LESR-33" value="" style="shape=flexArrow;endArrow=classic;html=1;strokeWidth=3;fillColor=#ffffff;" parent="1" edge="1">
          <mxGeometry width="50" height="50" relative="1" as="geometry">
            <mxPoint x="553" y="650" as="sourcePoint" />
            <mxPoint x="553" y="560" as="targetPoint" />
          </mxGeometry>
        </mxCell>
        <mxCell id="7RYQ9nikGVs3Xfe4LESR-26" value="" style="shape=flexArrow;endArrow=classic;html=1;strokeWidth=3;fillColor=#ffffff;" parent="1" edge="1">
          <mxGeometry width="50" height="50" relative="1" as="geometry">
            <mxPoint x="914" y="365" as="sourcePoint" />
            <mxPoint x="914" y="275" as="targetPoint" />
          </mxGeometry>
        </mxCell>
        <mxCell id="7RYQ9nikGVs3Xfe4LESR-17" value="" style="shape=flexArrow;endArrow=classic;html=1;strokeWidth=3;fillColor=#ffffff;" parent="1" edge="1">
          <mxGeometry width="50" height="50" relative="1" as="geometry">
            <mxPoint x="566" y="360" as="sourcePoint" />
            <mxPoint x="566" y="450" as="targetPoint" />
          </mxGeometry>
        </mxCell>
        <mxCell id="7RYQ9nikGVs3Xfe4LESR-31" value="" style="shape=flexArrow;endArrow=classic;html=1;strokeWidth=3;fillColor=#ffffff;" parent="1" edge="1">
          <mxGeometry width="50" height="50" relative="1" as="geometry">
            <mxPoint x="906" y="650" as="sourcePoint" />
            <mxPoint x="906" y="740" as="targetPoint" />
          </mxGeometry>
        </mxCell>
        <mxCell id="7RYQ9nikGVs3Xfe4LESR-16" value="$$P_{ab}^M=UI_l^M$$" style="text;html=1;strokeColor=none;fillColor=none;align=center;verticalAlign=middle;whiteSpace=wrap;rounded=0;fontSize=20;direction=east;horizontal=1;" parent="1" vertex="1">
          <mxGeometry x="340" y="300" width="170" height="60" as="geometry" />
        </mxCell>
        <mxCell id="7RYQ9nikGVs3Xfe4LESR-15" value="$$P_u^G=UI_l^G$$" style="text;html=1;strokeColor=none;fillColor=none;align=center;verticalAlign=middle;whiteSpace=wrap;rounded=0;fontSize=20;direction=east;horizontal=0;" parent="1" vertex="1">
          <mxGeometry x="250" y="425" width="80" height="210" as="geometry" />
        </mxCell>
        <mxCell id="7RYQ9nikGVs3Xfe4LESR-18" value="$$p_{ele}^M=R_i^M(I_l^M-I_{ex}^M)^2+UI_{ex}^M&lt;br&gt;$$" style="text;html=1;strokeColor=none;fillColor=none;align=center;verticalAlign=middle;whiteSpace=wrap;rounded=0;fontSize=20;direction=east;horizontal=1;" parent="1" vertex="1">
          <mxGeometry x="430" y="440" width="320" height="60" as="geometry" />
        </mxCell>
        <mxCell id="7RYQ9nikGVs3Xfe4LESR-19" value="$$I_l^M=I_l^G+I$$" style="text;html=1;strokeColor=none;fillColor=none;align=center;verticalAlign=middle;whiteSpace=wrap;rounded=0;fontSize=20;direction=east;horizontal=1;fontColor=#0000FF;" parent="1" vertex="1">
          <mxGeometry x="340" y="360" width="170" height="60" as="geometry" />
        </mxCell>
        <mxCell id="7RYQ9nikGVs3Xfe4LESR-27" value="$$p^M_{(mec+Fe)}$$" style="text;html=1;strokeColor=none;fillColor=none;align=center;verticalAlign=middle;whiteSpace=wrap;rounded=0;fontSize=20;direction=east;horizontal=1;" parent="1" vertex="1">
          <mxGeometry x="860" y="220" width="110" height="60" as="geometry" />
        </mxCell>
        <mxCell id="7RYQ9nikGVs3Xfe4LESR-30" value="$$p_{ele}^G=R_i^G(I_l^G+I_{ex}^G)^2+UI_{ex}^G&lt;br&gt;$$" style="text;html=1;strokeColor=none;fillColor=none;align=center;verticalAlign=middle;whiteSpace=wrap;rounded=0;fontSize=20;direction=east;horizontal=1;" parent="1" vertex="1">
          <mxGeometry x="410" y="500" width="350" height="60" as="geometry" />
        </mxCell>
        <mxCell id="7RYQ9nikGVs3Xfe4LESR-34" value="$$p^G_{(mec+Fe)}$$" style="text;html=1;strokeColor=none;fillColor=none;align=center;verticalAlign=middle;whiteSpace=wrap;rounded=0;fontSize=20;direction=east;horizontal=1;" parent="1" vertex="1">
          <mxGeometry x="850" y="730" width="110" height="60" as="geometry" />
        </mxCell>
        <mxCell id="7RYQ9nikGVs3Xfe4LESR-35" value="$$P_d^G=E(I_l^G+I_{ex}^G)=T_d^G\omega_{mec}$$" style="text;html=1;strokeColor=none;fillColor=none;align=center;verticalAlign=middle;whiteSpace=wrap;rounded=0;fontSize=20;direction=east;horizontal=1;" parent="1" vertex="1">
          <mxGeometry x="600" y="660" width="270" height="60" as="geometry" />
        </mxCell>
        <mxCell id="7RYQ9nikGVs3Xfe4LESR-36" value="$$P_u^M=T_u\omega_{mec}=P_{ab}^G$$" style="text;html=1;strokeColor=none;fillColor=none;align=center;verticalAlign=middle;whiteSpace=wrap;rounded=0;fontSize=20;direction=east;horizontal=0;rotation=180;" parent="1" vertex="1">
          <mxGeometry x="1000" y="360" width="60" height="290" as="geometry" />
        </mxCell>
        <mxCell id="7RYQ9nikGVs3Xfe4LESR-14" value="$$p_{t}=UI$$" style="text;html=1;strokeColor=none;fillColor=none;align=center;verticalAlign=middle;whiteSpace=wrap;rounded=0;fontSize=20;shadow=1;" parent="1" vertex="1">
          <mxGeometry x="140" y="303" width="170" height="60" as="geometry" />
        </mxCell>
        <mxCell id="7RYQ9nikGVs3Xfe4LESR-12" value="" style="shape=flexArrow;endArrow=classic;html=1;strokeWidth=3;fillColor=#ffffff;" parent="1" edge="1">
          <mxGeometry width="50" height="50" relative="1" as="geometry">
            <mxPoint x="580" y="650" as="sourcePoint" />
            <mxPoint x="320" y="370" as="targetPoint" />
            <Array as="points">
              <mxPoint x="320" y="650" />
            </Array>
          </mxGeometry>
        </mxCell>
        <mxCell id="7RYQ9nikGVs3Xfe4LESR-32" value="" style="shape=flexArrow;endArrow=classic;html=1;strokeWidth=3;fillColor=#ffffff;" parent="1" edge="1">
          <mxGeometry width="50" height="50" relative="1" as="geometry">
            <mxPoint x="930" y="650" as="sourcePoint" />
            <mxPoint x="560" y="650" as="targetPoint" />
          </mxGeometry>
        </mxCell>
        <mxCell id="7RYQ9nikGVs3Xfe4LESR-29" value="" style="shape=flexArrow;endArrow=classic;html=1;strokeWidth=3;fillColor=#ffffff;" parent="1" edge="1">
          <mxGeometry width="50" height="50" relative="1" as="geometry">
            <mxPoint x="890" y="360" as="sourcePoint" />
            <mxPoint x="910" y="651" as="targetPoint" />
            <Array as="points">
              <mxPoint x="1000" y="360" />
              <mxPoint x="1000" y="651" />
            </Array>
          </mxGeometry>
        </mxCell>
        <mxCell id="7RYQ9nikGVs3Xfe4LESR-24" value="$$P_d^M=E^{&#39;}(I_l^M-I_{ex}^M)=T_d^M\omega_{mec}$$" style="text;html=1;strokeColor=none;fillColor=none;align=center;verticalAlign=middle;whiteSpace=wrap;rounded=0;fontSize=20;direction=east;horizontal=1;" parent="1" vertex="1">
          <mxGeometry x="570" y="303" width="300" height="60" as="geometry" />
        </mxCell>
        <mxCell id="7RYQ9nikGVs3Xfe4LESR-21" value="" style="shape=flexArrow;endArrow=classic;html=1;strokeWidth=3;fillColor=#ffffff;" parent="1" edge="1">
          <mxGeometry width="50" height="50" relative="1" as="geometry">
            <mxPoint x="540" y="360" as="sourcePoint" />
            <mxPoint x="910" y="360" as="targetPoint" />
          </mxGeometry>
        </mxCell>
        <mxCell id="7RYQ9nikGVs3Xfe4LESR-11" value="" style="shape=flexArrow;endArrow=classic;html=1;strokeWidth=3;fillColor=#ffffff;" parent="1" edge="1">
          <mxGeometry width="50" height="50" relative="1" as="geometry">
            <mxPoint x="320" y="360" as="sourcePoint" />
            <mxPoint x="560" y="360" as="targetPoint" />
          </mxGeometry>
        </mxCell>
        <mxCell id="7RYQ9nikGVs3Xfe4LESR-6" value="" style="shape=flexArrow;endArrow=classic;html=1;strokeWidth=3;fillColor=#ffffff;" parent="1" edge="1">
          <mxGeometry width="50" height="50" relative="1" as="geometry">
            <mxPoint x="150" y="360" as="sourcePoint" />
            <mxPoint x="330" y="360" as="targetPoint" />
          </mxGeometry>
        </mxCell>
      </root>
    </mxGraphModel>
  </diagram>
</mxfile>
